# xmcd
#
# Track frame offsets:
#	150
#	14164
#	24788
#	38838
#	51311
#	70946
#	85978
#	105683
#	125720
#	141787
#	159402
#	173178
#	193997
#	213696
#	257801
#	282544
#
# Disc length: 3959 seconds
#
# Revision: 0
# Processed by: cddbd v1.5.2PL0 Copyright (c) Steve Scherf et al.
# Submitted via: EasyCDDAExtractor 16.0.6.1
#
DISCID=f60f7510
DTITLE=Συλλογικός δίσκος - Οι πατρίδες της Ελλάδας 1-Μακεδονία
DYEAR=2004
DGENRE=Παραδοσιακή
TTITLE0=Άνευ ερμηνευτού - Λαγκάζ (α) Βάσου [συγκρ. Γ. Καψάλη]
TTITLE1=Αγραφιώτης Χρήστος - Απ' του Βάβδου ως τουν Αη Μάμα [συγκρ. Χ. Κοντού]
TTITLE2=Άνευ ερμηνευτού - Μαντζουράνα [συγκρ. Γ. Καψάλη]
TTITLE3=Μυλωνά Ρ. - Η Μαγδαληνή [συγκρ. Τ. Τσιάλα]
TTITLE4=Τσιάλας Τ. - Δεν είν' αυγή [συγκρ. Τ. Τσιάλα]
TTITLE5=Άνευ ερμηνευτού - Γαμπριάτκου [συγκρ. Χ. Κουτσού]
TTITLE6=Τσιάλας Τ. - Μαρμαρένια μου βρυσούλα [συγκρ. Τ. Τσιάλα]
TTITLE7=Άνευ ερμηνευτού - Τράϊος [συγκρ. Τ. Τσιάλα]
TTITLE8=Άνευ ερμηνευτού - Οσμάν πασσά [συγκρ. Γ. Καψάλη]
TTITLE9=Αγραφιώτης Χρήστος - Έλα μαννούλα μου γλυκιά [συγκρ. Χ. Αγραφιώτη]
TTITLE10=Άνευ ερμηνευτού - Ντάρος [συγκρ. Χ. Κουτσού]
TTITLE11=Μυλωνά Ρ. - Του Χάψα το τραγούδι [συγκρ. Τ. Τσιάλα]
TTITLE12=Χριστέλη Κ. - Τι έχεις καϋμένε κόρακα [συγκρ. Τ. Τσιάλα]
TTITLE13=Αγραφιώτης Χρήστος - Σήμιρα είνι τ' Αη Λιά-Μήλο μου-Ο διαμαντένιος στ
TTITLE13=αυρός-Σαν απόψι
TTITLE14=Άνευ ερμηνευτού - Της Πανάγιως [συγκρ. Γ. Καψάλη]
TTITLE15=Τσιάλας Τ. - Το σύννεφο [συγκρ. Τ. Τσιάλα]
EXTD=
EXTT0=
EXTT1=
EXTT2=
EXTT3=
EXTT4=
EXTT5=
EXTT6=
EXTT7=
EXTT8=
EXTT9=
EXTT10=
EXTT11=
EXTT12=
EXTT13=
EXTT14=
EXTT15=
PLAYORDER=
